<svg xmlns="http://www.w3.org/2000/svg" width="1280" height="210" fill="none" xmlns:v="https://vecta.io/nano"><style><![CDATA[.B{fill-opacity:.3}.C{fill:#81e0ff}]]></style><g clip-path="url(#F)"><path fill="#132f3f" d="M0 0h1280v210H0z"/><path opacity=".73" d="M1323.64 182.797c-8.07-5.763-50.31-29.598-59.66-32.902-6.99-2.465-15.1-4.09-21.51-.386-4.57 2.639-7.33 7.462-10.76 11.475-14.47 16.937-40.3 19.035-57.25 33.492-2.07 1.762-4.04 3.768-5.07 6.28-1.52 3.724-.77 8 .64 11.77 4.41 11.832 14.6 20.584 25.36 27.192 4.39 2.689 9.21 5.433 11.32 10.124 2.01 4.47 1.15 9.972 3.75 14.13 1.66 2.66 4.5 4.346 7.39 5.572 13.44 5.699 28.9 3.195 42.91-.882 6.04-1.757 12.13-3.861 17.04-7.79 3.7-2.962 6.56-6.842 9.06-10.874 15.89-25.746 53.18-37.549 39.18-64.379" fill="url(#B)"/><g fill="#9fe7ff"><path d="M477.555 184.404a58.91 58.91 0 0 1 31.647-21.88c8.818-2.434 18.12-2.781 26.934-5.219s17.642-7.682 20.836-16.254c2.154-5.808 1.431-12.237 2.356-18.369 1.602-10.567 8.499-20.194 17.989-25.116s21.339-5.005 30.904-.225c19.137 9.561 25.094 34.059 40.588 48.822 4.942 4.71 10.811 8.365 15.754 13.075 11.253 10.705 16.982 26.464 17.166 41.995s-4.821 30.813-12.468 44.328c-1.821 3.223-3.877 6.451-6.919 8.565-2.653 1.845-5.849 2.7-8.973 3.522-9.152 2.413-18.511 4.845-27.953 4.161-6.308-.46-12.423-2.297-18.477-4.123-6.468-1.951-12.976-3.922-18.968-7.035-7.465-3.902-13.904-9.494-20.842-14.288-14.861-10.249-31.953-16.809-49.856-19.134-6.805-.875-13.74-1.14-20.433-2.711s-13.31-4.639-17.573-10.026-5.586-13.453-1.858-19.222" class="B"/><path d="M450.293 203.442c.879 3.514 2.97 5.489 5.339 8.229s5.349 4.886 8.7 6.265c8.672 3.486 18.517 1.352 27.762 2.724 4.631.69 9.091 2.256 13.702 3.092 1.268.23 2.643.389 3.782-.211 1.454-.765 2.08-2.6 1.898-4.233s-1.012-3.113-1.846-4.53c-2.287-3.873-4.749-7.634-7.387-11.285-1.606-2.221-3.34-4.455-5.709-5.832-2.178-1.264-4.734-1.705-7.225-2.056a132.78 132.78 0 0 0-29.289-.835c-2.616.215-5.354.556-7.491 2.08s-2.818 2.985-2.422 5.85" class="B"/><path d="M700.511 173.59a130.87 130.87 0 0 1-12.939-43.521c-.463-4.05-.725-8.242.511-12.118s4.313-7.426 8.327-8.135c5.525-.975 10.456 3.431 14.072 7.701 9.671 11.421 17.192 24.484 24.183 37.716 9.78 18.505 18.86 38.667 16.99 59.521-.473 5.277-1.645 10.474-2.234 15.742-.459 4.131-.575 8.383-2.102 12.252s-4.882 7.375-9.033 7.595c-3.752.2-7.208-2.348-9.21-5.527s-2.857-6.921-3.769-10.564c-5.508-21.999-12.877-41.371-24.796-60.662z" fill-opacity=".48"/><path d="M725.318 166.935c-3.241-18.335-4.311-36.766-3.241-55.359 1.153-20.039 16.097-38.543 35.444-43.891 4.563-1.261 10.082-1.608 13.399 1.77s2.866 8.915 1.351 13.398c-3.472 10.265-11.228 18.959-13.044 29.639-1.797 10.567 2.533 21.206 2.588 31.922a40.2 40.2 0 0 1-2.36 13.764c-2.7 7.521-8.165 14.526-15.811 16.869s-16.149-.427-18.326-8.113z" fill-opacity=".32"/><path d="M905.192 159.442c8.659-16.028 25.91-27.069 44.096-28.198 7.084-.439 14.374.579 20.681 3.835s11.536 8.898 13.428 15.738c1.072 3.878.956 8.342-1.449 11.568-1.538 2.063-3.839 3.412-6.124 4.6-19.107 9.842-41.143 12.405-62 7.21-3.81-.962-7.82-2.37-10.094-5.569s-1.665-8.635 2.045-9.963M403.607 78.761c-5.206-15.184-18.602-27.277-34.246-30.89-6.093-1.407-12.577-1.577-18.53.34s-11.315 6.064-13.949 11.736c-1.493 3.215-2.038 7.112-.415 10.264 1.039 2.016 2.844 3.521 4.658 4.885 15.183 11.32 33.964 16.736 52.845 15.239 3.45-.285 7.139-.928 9.579-3.38s2.697-7.264-.335-8.955" class="B"/><path d="M419.894 87.025c1.145-7.711-1.332-14.933-6.338-18.449-1.95-1.37-4.292-2.206-6.859-2.004s-5.366 1.516-7.472 3.862c-1.194 1.33-2.177 3.089-2.216 4.753-.025 1.065.334 1.979.725 2.829 3.287 7.068 9.081 11.795 16.3 13.299 1.322.27 2.803.399 4.19-.463s2.449-3.083 1.678-4.229m526.113 135.995c8.659-16.028 25.91-27.07 44.097-28.198 7.083-.439 14.378.579 20.678 3.835 6.31 3.255 11.54 8.898 13.43 15.738 1.07 3.878.96 8.342-1.45 11.568-1.54 2.063-3.84 3.411-6.12 4.6-19.11 9.842-41.145 12.405-62.003 7.21-3.81-.962-7.819-2.37-10.094-5.569s-1.665-8.635 2.045-9.963" class="B"/><path d="M802.568 157.798c5.906-6.916 15.079-10.071 23.989-11.903s18.145-2.675 26.499-6.274c8.077-3.481 14.862-9.341 21.491-15.114s13.381-11.662 21.428-15.215 17.757-4.473 25.477-.28c2.12 1.148 4.077 2.687 5.423 4.688 2.926 4.353 2.552 10.118 1.315 15.215-5.18 21.307-22.898 37.923-27.883 59.276-3.441 14.74-1.005 31.92-10.837 43.426-4.933 5.775-12.242 9.011-19.617 10.816s-14.994 2.345-22.454 3.749c-12.067 2.283-23.602 6.798-34.01 13.314-6.406 4.013-13.241 8.995-20.706 7.856-8.216-1.252-13.644-9.865-14.229-18.151s2.479-16.335 5.291-24.148c7.914-22.009 1.382-51.026 18.915-67.473" class="B"/><path d="M801.884 174.78c12.227-17.912 17.554-8.484 33.095-10.255 4.887-1.251 9.837-2.53 14.24-4.985 6.098-3.401 10.83-8.879 16.935-12.264s14.908-3.918 19.098 1.665c2.875 3.833 2.529 9.294.661 13.707s-5.026 8.127-7.657 12.132c-2.858 4.352-5.15 9.21-5.698 14.396-.684 6.507 1.378 13.357-.9 19.49-3.235 8.705-13.457 12.126-22.285 14.976-15.384 4.98-30.215 11.524-44.262 19.529-1.377.794-3.003 1.604-4.466.999-.84-.348-1.435-1.114-1.889-1.902-1.924-3.347-1.919-7.464-1.346-11.287.83-5.552-.915-8.99.965-14.279.723-16.246-4.357-27.205 3.509-41.922z" fill-opacity=".2"/><path d="M607.127-19.047c4.165-1.222 7.474-.257 11.743.531a27.72 27.72 0 0 1 11.749 5.197c8.859 6.852 12.62 18.323 19.641 27.049 3.52 4.37 7.842 8.03 11.501 12.29 1.005 1.172 2.004 2.497 2.073 4.038.092 1.967-1.426 3.726-3.225 4.528s-3.831.841-5.802.837a175.16 175.16 0 0 1-16.142-.797c-3.27-.315-6.63-.754-9.489-2.368-2.628-1.484-4.632-3.859-6.505-6.222-7.284-9.207-13.527-19.192-18.613-29.773-1.364-2.834-2.671-5.871-2.391-9.004s1.378-4.722 4.58-6.049" class="B"/><path d="M614.526 14.545c-10.062 2.578-21.362-.372-28.873-7.55-2.926-2.796-5.321-6.242-6.399-10.143s-.739-8.274 1.393-11.713c1.209-1.95 3.123-3.629 5.404-3.87 1.46-.154 2.915.287 4.297.784a50.53 50.53 0 0 1 27.014 23.169c1.072 1.968 2.034 4.191 1.575 6.382s-2.971 4.039-4.963 3" class="B"/></g><g opacity=".75"><path d="M14.402 230.404a25.57 25.57 0 0 1-6.048-8.114 25.56 25.56 0 0 1-2.424-9.824c-.114-3.056.315-6.201-.63-9.114-2.097-6.442-10.457-10.354-10.133-17.121.28-5.839 7.269-10.362 5.988-16.068-.379-1.68-1.446-3.104-2.31-4.595-1.807-3.12-2.763-6.99-1.445-10.35s5.453-5.667 8.716-4.126c1.621.768 2.746 2.284 3.724 3.789 3.841 5.901 6.792 12.852 12.763 16.573 1.983 1.234 4.38 2.213 5.348 4.338.567 1.242.523 2.67.369 4.027-.762 6.652-3.973 13.139-2.917 19.753.867 5.426 4.81 10.253 9.952 12.19 1.01.38 2.111.69 2.823 1.501 1.534 1.744.344 4.441-.884 6.412l-6.039 9.692c-1.322 2.107-2.814 4.37-5.175 5.152-5.275 1.748-9.743-4.828-15.262-5.498" class="B C"/><path d="M76.688 128.989l1.681-14.714c.826-7.226 1.657-14.5 1.247-21.754-.704-12.604-5.276-25.064-13.397-34.744S46.412 41.352 33.882 39.783c-5.872-.734-12.671.044-16.273 4.725-2.015 2.62-2.668 6.015-3.061 9.294-1.317 10.947-.227 22.653 5.824 31.876 3.22 4.908 7.666 8.86 11.621 13.199 6.127 6.719 11.097 14.391 16.605 21.623 8.324 10.916 18.1 21.19 22.726 34.106a35.76 35.76 0 0 0 4.803-26.381" fill="url(#C)"/><path d="M102.56 222.253c-3.006-5.131-2.249-11.511-2.075-17.455.48-16.438-4.721-33.514-16.469-45.02-3.858-3.778-8.51-6.975-13.805-8.041s-11.291.319-14.816 4.413c-3.024 3.498-3.861 8.48-3.26 13.064s2.486 8.89 4.4 13.098c3.99 8.764 8.386 17.673 15.612 24.037 6.955 6.126 16.281 9.661 21.663 17.211.499.699 1.015 1.474 1.827 1.755.627.217 1.312.091 1.96-.065a17.69 17.69 0 0 0 6.52-3.14" fill="url(#D)"/><path d="M20.213 215.919c2.126-10.855 3.64-23.799-4.381-31.417-2.629-2.496-6.115-4.172-8.039-7.243-4.648-7.416 2.388-17.792-1.418-25.67-1.814-3.754-5.845-6.248-7.034-10.244-2.851-9.585 12.281-17.277 10.153-27.05-.575-2.646-2.405-4.911-2.851-7.579-.98-5.872 5.628-10.887 11.535-10.168s10.602 5.376 13.74 10.432 5.223 10.738 8.7 15.567c3.614 5.012 8.919 9.665 8.882 15.844-.026 4.518-2.983 8.393-5.091 12.385-5.019 9.487-5.503 20.998-2.492 31.305s9.32 19.439 17.024 26.914c1.299 1.259 2.737 2.687 2.767 4.497.021 1.284-.691 2.452-1.38 3.538l-8.851 13.971c-.526.838-1.153 1.742-2.117 1.966-.882.207-1.776-.223-2.575-.65-9.498-5.071-18.334-11.294-26.307-18.529" fill="url(#E)"/><mask id="A" maskUnits="userSpaceOnUse" x="-2" y="96" width="64" height="138" mask-type="alpha"><path d="M20.214 215.92c2.126-10.855 3.64-23.799-4.381-31.417-2.629-2.496-6.115-4.172-8.039-7.243-4.648-7.416 2.388-17.792-1.418-25.67-1.814-3.754-5.845-6.248-7.034-10.244-2.851-9.585 12.281-17.277 10.153-27.05-.575-2.646-2.405-4.91-2.851-7.579-.98-5.872 5.628-10.887 11.535-10.168s10.602 5.376 13.74 10.432 5.223 10.738 8.7 15.567c3.614 5.012 8.919 9.665 8.882 15.844-.026 4.518-2.983 8.393-5.091 12.385-5.019 9.487-5.503 20.998-2.492 31.305s9.32 19.439 17.024 26.914c1.299 1.259 2.737 2.687 2.767 4.497.021 1.284-.691 2.452-1.38 3.538l-8.851 13.971c-.526.838-1.153 1.742-2.117 1.966-.882.207-1.776-.223-2.575-.65-9.498-5.071-18.334-11.294-26.307-18.529" class="B C"/></mask><g mask="url(#A)" class="C"><path d="M10.42 94.277a16.88 16.88 0 0 1 5.306 3.96 16.87 16.87 0 0 1 3.375 5.696c2.679 7.751-.449 17.038 3.768 24.076 1.97 3.279 5.267 5.523 7.687 8.482 3.927 4.805 5.315 11.564 3.616 17.529-1.13 3.953-3.531 7.61-3.642 11.723-.072 3.028 1.105 5.924 2.306 8.708 2.501 5.804 5.147 11.543 7.94 17.216 1.526-3.609 4.092-6.681 7.37-8.827-4.331-8.517-1.475-18.751 1.49-27.841s5.89-19.283 1.665-27.854c-2.762-5.619-8.175-9.474-11.466-14.797-3.434-5.554-4.915-13.017-10.75-15.949-1.679-.844-3.553-1.195-5.4-1.537l-12.028-2.229c-1.313-.243-3.016-.294-3.6.898.422.52.981.911 1.614 1.131s1.314.259 1.967.114" fill-opacity=".54"/><path d="M17.024 94.636c3.45 4.01 5.251 9.16 6.624 14.268s2.417 10.353 4.65 15.144S34.197 133.25 39.191 135c.588.207 1.301.36 1.791-.037.524-.423.481-1.224.351-1.884-1.318-6.721-6.382-12.12-8.461-18.647-.72-2.28-1.075-4.654-1.831-6.917-2.092-6.286-7.438-11.391-13.816-13.192"/></g><g fill="#9fe7ff" class="B"><path d="M114.966 107.94c-1.452-12.724 4.056-26.027 14.089-33.991 3.908-3.102 8.521-5.446 13.467-6.105s10.23.492 14.072 3.676c2.177 1.805 3.905 4.426 3.816 7.253-.058 1.809-.842 3.511-1.682 5.115-7.06 13.359-18.736 23.697-32.852 29.089-2.584.977-5.462 1.777-8.06.847s-4.432-4.309-2.827-6.567m15.919 115.006c5.639-17.373 20.654-31.383 38.384-35.787 6.906-1.715 14.28-2.03 21.089.04s12.987 6.687 16.09 13.09c1.759 3.631 2.452 8.054.665 11.67-1.144 2.314-3.17 4.06-5.208 5.645a88.86 88.86 0 0 1-59.837 18.329c-3.932-.259-8.141-.922-10.963-3.666s-3.204-8.214.214-10.195"/></g></g></g><defs><linearGradient id="B" x1="1299.07" y1="216.612" x2="1168.37" y2="204.623" href="#G"><stop stop-color="#81e0ff" stop-opacity=".6"/><stop offset="1" stop-color="#81e0ff" stop-opacity=".3"/></linearGradient><linearGradient id="C" x1="50.461" y1="44.885" x2="71.324" y2="154.606" href="#G"><stop stop-color="#81e0ff" stop-opacity=".6"/><stop offset="1" stop-color="#81e0ff" stop-opacity=".3"/></linearGradient><linearGradient id="D" x1="59.091" y1="153.18" x2="102.902" y2="222.965" href="#G"><stop stop-color="#81e0ff" stop-opacity=".6"/><stop offset="1" stop-color="#81e0ff" stop-opacity=".3"/></linearGradient><linearGradient id="E" x1="20.992" y1="108.581" x2="49.443" y2="234.368" href="#G"><stop stop-color="#81e0ff" stop-opacity=".3"/><stop offset="1" stop-color="#81e0ff" stop-opacity=".6"/></linearGradient><clipPath id="F"><path fill="#fff" d="M0 0h1280v210H0z"/></clipPath><linearGradient id="G" gradientUnits="userSpaceOnUse"/></defs></svg>